<svg width="24" height="32" viewBox="0 0 24 32" fill="none" xmlns="http://www.w3.org/2000/svg">
<path d="M12 0C5.15901 0 0 2.57869 0 6.00022V25.9998C0 29.4204 5.15918 32 12 32C18.8408 32 24 29.4213 24 25.9998V6.00022C24 2.57959 18.8408 0 12 0ZM12 2.00049C17.7249 2.00049 22.0001 4.11116 22.0001 6.00005C22.0001 7.88893 17.7249 9.9996 12 9.9996C6.27581 9.9996 1.99985 7.88893 1.99985 6.00005C1.99985 4.11116 6.27581 2.00049 12 2.00049ZM12 29.9999C6.27581 29.9999 1.99985 27.8892 1.99985 26.0003V24.4065C4.11417 25.994 7.72887 27.0005 12 27.0005C16.2711 27.0005 19.8873 25.9947 22.0001 24.4065V26.0003C22.0001 27.8892 17.7249 29.9999 12 29.9999ZM12 25C6.27581 25 1.99985 22.8893 1.99985 21.0004V19.4066C4.11417 20.9941 7.72887 22.0006 12 22.0006C16.2711 22.0006 19.8873 20.9948 22.0001 19.4066V21.0004C22.0001 22.8893 17.7249 25 12 25ZM12 20.0001C6.27581 20.0001 1.99985 17.8894 1.99985 16.0005V14.4067C4.11417 15.9942 7.72887 17.0007 12 17.0007C16.2711 17.0007 19.8873 15.9949 22.0001 14.4067V16.0005C22.0001 17.8894 17.7249 20.0001 12 20.0001ZM12 15.0002C6.27581 15.0002 1.99985 12.8895 1.99985 11.0006V9.40679C4.11417 10.9944 7.72887 12.0008 12 12.0008C16.2711 12.0008 19.8873 10.995 22.0001 9.40679V11.0006C22.0001 12.8895 17.7249 15.0002 12 15.0002Z" fill="black"/>
</svg>
